<?xml version="1.0" encoding="UTF-8"?>
<!-- Generator: Adobe Illustrator 14.0.0, SVG Export Plug-In . SVG Version: 6.00 Build 43363)  -->
<!DOCTYPE svg PUBLIC "-//W3C//DTD SVG 1.1//EN" "http://www.w3.org/Graphics/SVG/1.1/DTD/svg11.dtd">
<svg version="1.1" id="Layer_1" xmlns="http://www.w3.org/2000/svg" xmlns:xlink="http://www.w3.org/1999/xlink" x="0px" y="0px" width="646px" height="646px" viewBox="0 0 646 646" enable-background="new 0 0 646 646" xml:space="preserve">
<g>
	<path fill-rule="evenodd" clip-rule="evenodd" fill="#888888" d="M445.73,35.592c67.819,28.774,117.623,75.567,151.911,137.869   c-33.281,47.994-64.773,97.778-98.934,144.891C481.521,223.626,463.068,130.169,445.73,35.592z"/>
	<path fill-rule="evenodd" clip-rule="evenodd" fill="#888888" d="M11.061,331.755c0-6.169,0-12.339,0-18.51   c1.801-29.474,5.774-56.777,13.404-80.423c58.444-10.918,116.086-22.634,174.251-33.829   c-54.324,81.626-108.094,163.816-162.762,245.1C22.095,412.208,13.302,375.258,11.061,331.755z"/>
	<path fill-rule="evenodd" clip-rule="evenodd" fill="#888888" d="M635.938,313.245c0,6.17,0,12.34,0,18.51   c-1.802,29.474-5.774,56.778-13.404,80.424c-59.238,10.761-117.416,22.579-176.165,33.829   C501.272,364.96,556.674,281,611.684,202.185C625.069,233.905,633.768,270.312,635.938,313.245z"/>
	<path fill-rule="evenodd" clip-rule="evenodd" fill="#888888" d="M150.207,321.542c18.12,95.921,35.684,192.393,52.978,289.142   c-67.807-28.999-118.105-75.507-153.188-137.23C82.689,422.106,116.73,372.107,150.207,321.542z"/>
	<path fill-rule="evenodd" clip-rule="evenodd" fill="#888888" d="M611.046,441.539c0.425,0,0.851,0,1.276,0   c-29.56,69.589-77.443,120.849-141.061,156.38c-43.593-28.461-87.719-58.349-130.848-88.082   c-5.879-4.055-11.169-7.956-17.233-12.767C419.73,479.156,515.229,460.187,611.046,441.539z"/>
	<path fill-rule="evenodd" clip-rule="evenodd" fill="#888888" d="M314.245,10.062c6.17,0,12.34,0,18.51,0   c30.459,2.092,59.437,5.668,82.977,14.68c11.181,56.479,21.314,114,32.553,170.421c-79.708-54.544-160.55-107.955-239.356-163.4   C239.545,20.041,273.878,12.035,314.245,10.062z"/>
	<path fill-rule="evenodd" clip-rule="evenodd" fill="#888888" d="M314.245,634.939c-29.966-1.948-58.111-5.717-81.7-14.043   c-9.907-57.751-20.655-114.658-31.276-171.697c80.147,54.104,161.138,107.367,239.994,162.762   c-31.418,12.411-66.7,20.956-108.508,22.979C326.585,634.939,320.415,634.939,314.245,634.939z"/>
	<path fill-rule="evenodd" clip-rule="evenodd" fill="#888888" d="M97.429,106.233c4.388-4.337,8.777-8.673,13.166-13.011   c22.23-19.436,44.443-35.803,66.625-46.997c48.846,33.897,97.697,66.661,146.545,100.163   c-96.244,18.736-192.5,38.264-288.742,56.515C47.96,170.633,68.062,138.405,97.429,106.233z"/>
</g>
</svg>