<?xml version="1.0" encoding="UTF-8"?>
<!DOCTYPE svg PUBLIC "-//W3C//DTD SVG 1.1//EN" "http://www.w3.org/Graphics/SVG/1.1/DTD/svg11.dtd">
<svg xmlns="http://www.w3.org/2000/svg" version="1.1" width="200px" height="108px" style="shape-rendering:geometricPrecision; text-rendering:geometricPrecision; image-rendering:optimizeQuality; fill-rule:evenodd; clip-rule:evenodd" xmlns:xlink="http://www.w3.org/1999/xlink">
<g><path style="opacity:0.008" fill="#ff7b6c" d="M 50.5,8.5 C 51.9464,7.38705 53.6131,7.22039 55.5,8C 53.8659,8.49351 52.1992,8.66018 50.5,8.5 Z"/></g>
<g><path style="opacity:0.012" fill="#ff7466" d="M 56.5,8.5 C 57.6009,7.40168 58.9343,7.23502 60.5,8C 59.2068,8.49001 57.8734,8.65668 56.5,8.5 Z"/></g>
<g><path style="opacity:0.006" fill="#fe0000" d="M 50.5,8.5 C 50.5,8.83333 50.5,9.16667 50.5,9.5C 49.5084,9.32842 48.8417,9.66175 48.5,10.5C 47.7611,10.631 47.0944,10.4643 46.5,10C 47.5634,8.81181 48.8967,8.31181 50.5,8.5 Z"/></g>
<g><path style="opacity:0.004" fill="#7e4e48" d="M 62.5,10.5 C 61.6322,8.10809 62.2988,7.94142 64.5,10C 63.9056,10.4643 63.2389,10.631 62.5,10.5 Z"/></g>
<g><path style="opacity:0.98" fill="#f6b9b5" d="M 60.5,10.5 C 61.1667,10.5 61.8333,10.5 62.5,10.5C 63.1667,11.5 63.8333,12.5 64.5,13.5C 64.5569,14.609 64.8902,15.609 65.5,16.5C 65.631,17.2389 65.4643,17.9056 65,18.5C 61.5328,16.8478 58.0328,15.3478 54.5,14C 53.6195,13.2917 52.9528,12.4584 52.5,11.5C 54.9479,10.5269 57.6146,10.1936 60.5,10.5 Z"/></g>
<g><path style="opacity:0.012" fill="#ff7360" d="M 68.5,15.5 C 68.1667,15.5 67.8333,15.5 67.5,15.5C 67.5,14.8333 67.1667,14.5 66.5,14.5C 67.3013,12.2071 67.968,12.5404 68.5,15.5 Z"/></g>
<g><path style="opacity:0.01" fill="#fe0000" d="M 41.5,17.5 C 40.8333,17.8333 40.1667,18.1667 39.5,18.5C 40.032,15.5404 40.6987,15.2071 41.5,17.5 Z"/></g>
<g><path style="opacity:0.976" fill="#fb130b" d="M 50.5,9.5 C 54.0419,9.18723 57.3752,9.52056 60.5,10.5C 57.6146,10.1936 54.9479,10.5269 52.5,11.5C 49.5128,11.9478 48.5128,13.4478 49.5,16C 56.4273,16.0471 61.9273,18.8804 66,24.5C 66.8007,21.633 66.6341,18.9664 65.5,16.5C 64.8902,15.609 64.5569,14.609 64.5,13.5C 65.1667,13.8333 65.8333,14.1667 66.5,14.5C 67.1667,14.5 67.5,14.8333 67.5,15.5C 67.5,16.1667 67.5,16.8333 67.5,17.5C 69.5327,25.0724 67.8661,31.7391 62.5,37.5C 61.8333,37.5 61.5,37.8333 61.5,38.5C 60.8333,38.8333 60.1667,39.1667 59.5,39.5C 58.5,39.5 57.5,39.5 56.5,39.5C 55.448,39.3505 54.448,39.5172 53.5,40C 54.3366,41.0113 54.67,42.1779 54.5,43.5C 54.1667,43.5 53.8333,43.5 53.5,43.5C 52.8333,43.5 52.5,43.8333 52.5,44.5C 49.8733,45.1049 47.2066,45.6049 44.5,46C 45,46.5 45.5,47 46,47.5C 47.6995,46.5939 49.5328,46.2606 51.5,46.5C 49.0209,48.4343 46.3542,49.101 43.5,48.5C 43.5,47.8333 43.1667,47.5 42.5,47.5C 41.8333,47.5 41.1667,47.5 40.5,47.5C 40.5,46.5 40.5,45.5 40.5,44.5C 42.9327,44.2144 42.9327,43.5477 40.5,42.5C 38.3251,35.5911 37.9918,28.5911 39.5,21.5C 40.6737,20.4863 41.3404,19.153 41.5,17.5C 43.5,14.8333 45.8333,12.5 48.5,10.5C 49.4916,10.6716 50.1583,10.3382 50.5,9.5 Z"/></g>
<g><path style="opacity:1" fill="#f68481" d="M 52.5,11.5 C 52.9528,12.4584 53.6195,13.2917 54.5,14C 58.0328,15.3478 61.5328,16.8478 65,18.5C 65.4643,17.9056 65.631,17.2389 65.5,16.5C 66.6341,18.9664 66.8007,21.633 66,24.5C 61.9273,18.8804 56.4273,16.0471 49.5,16C 48.5128,13.4478 49.5128,11.9478 52.5,11.5 Z"/></g>
<g><path style="opacity:0.006" fill="#fe0000" d="M 39.5,18.5 C 39.5,19.5 39.5,20.5 39.5,21.5C 38.71,22.6085 38.21,23.9419 38,25.5C 37.1742,22.7884 37.6742,20.4551 39.5,18.5 Z"/></g>
<g><path style="opacity:0.009" fill="#fe0000" d="M 36.5,26.5 C 37.6378,29.3035 37.8045,32.3035 37,35.5C 36.502,32.5184 36.3354,29.5184 36.5,26.5 Z"/></g>
<g><path style="opacity:0.082" fill="#5a5c56" d="M 68.5,15.5 C 73.4484,24.1417 72.1151,31.6417 64.5,38C 65.056,38.3826 65.3893,38.8826 65.5,39.5C 63.901,39.7678 62.5676,39.4345 61.5,38.5C 62.1667,38.5 62.5,38.1667 62.5,37.5C 67.8661,31.7391 69.5327,25.0724 67.5,17.5C 68.3382,17.1583 68.6716,16.4916 68.5,15.5 Z"/></g>
<g><path style="opacity:0.024" fill="#ac510a" d="M 101.5,31.5 C 100.508,31.3284 99.8417,31.6618 99.5,32.5C 97.6214,32.6068 97.2881,32.1068 98.5,31C 101.03,29.5783 103.697,29.245 106.5,30C 104.618,30.1981 102.952,30.6981 101.5,31.5 Z"/></g>
<g><path style="opacity:0.004" fill="#3b3928" d="M 110.5,45.5 C 109.833,45.5 109.167,45.5 108.5,45.5C 108.533,41.0796 108.367,36.7462 108,32.5C 109.161,36.7323 109.995,41.0657 110.5,45.5 Z"/></g>
<g><path style="opacity:0.024" fill="#b26709" d="M 95.5,34.5 C 92.5071,35.1346 89.5071,35.3013 86.5,35C 89.6232,33.6491 92.6232,33.4824 95.5,34.5 Z"/></g>
<g><path style="opacity:0.991" fill="#df5c02" d="M 99.5,32.5 C 100.167,32.5 100.833,32.5 101.5,32.5C 102.833,32.5 104.167,32.5 105.5,32.5C 105.81,35.7131 105.477,38.7131 104.5,41.5C 103.833,41.5 103.167,41.5 102.5,41.5C 97.2391,40.7636 91.9058,39.7636 86.5,38.5C 89.2565,36.8502 92.2565,35.5168 95.5,34.5C 97.153,34.3404 98.4863,33.6737 99.5,32.5 Z"/></g>
<g><path style="opacity:0.687" fill="#23130c" d="M 101.5,32.5 C 101.5,32.1667 101.5,31.8333 101.5,31.5C 103.167,31.5 104.833,31.5 106.5,31.5C 106.833,36.1667 107.167,40.8333 107.5,45.5C 106.609,44.8902 105.609,44.5569 104.5,44.5C 104.5,43.5 104.5,42.5 104.5,41.5C 105.477,38.7131 105.81,35.7131 105.5,32.5C 104.167,32.5 102.833,32.5 101.5,32.5 Z"/></g>
<g><path style="opacity:0.006" fill="#fe0000" d="M 38.5,40.5 C 37.4017,39.3991 37.235,38.0657 38,36.5C 38.49,37.7932 38.6567,39.1266 38.5,40.5 Z"/></g>
<g><path style="opacity:0.004" fill="#a2a2a2" d="M 152.5,38.5 C 152.897,37.475 153.563,37.3083 154.5,38C 153.906,38.4643 153.239,38.631 152.5,38.5 Z"/></g>
<g><path style="opacity:0.004" fill="#000000" d="M 86.5,38.5 C 85.8333,39.1667 85.8333,39.1667 86.5,38.5 Z"/></g>
<g><path style="opacity:0.012" fill="#c3c3c3" d="M 152.5,38.5 C 150.095,39.7682 147.428,40.4349 144.5,40.5C 146.838,38.9605 149.505,38.2938 152.5,38.5 Z"/></g>
<g><path style="opacity:0.008" fill="#fe0000" d="M 38.5,40.5 C 39.1667,41.1667 39.8333,41.8333 40.5,42.5C 40.5,43.1667 40.5,43.8333 40.5,44.5C 38.8958,43.713 38.2291,42.3797 38.5,40.5 Z"/></g>
<g><path style="opacity:0.024" fill="#afafaf" d="M 65.5,39.5 C 68.1522,39.4095 70.4855,40.0762 72.5,41.5C 69.8478,41.5905 67.5145,40.9238 65.5,39.5 Z"/></g>
<g><path style="opacity:0.014" fill="#b9b9b9" d="M 144.5,40.5 C 143.5,41.1667 142.5,41.8333 141.5,42.5C 139.901,42.2322 138.568,42.5655 137.5,43.5C 136.127,43.6567 134.793,43.49 133.5,43C 137.07,41.6905 140.737,40.8572 144.5,40.5 Z"/></g>
<g><path style="opacity:0.004" fill="#fe0000" d="M 38.5,45.5 C 39.8333,46.1667 39.8333,46.1667 38.5,45.5 Z"/></g>
<g><path style="opacity:0.02" fill="#c18571" d="M 53.5,43.5 C 53.3284,44.4916 53.6618,45.1583 54.5,45.5C 54.6495,46.552 54.4828,47.552 54,48.5C 53.5831,47.244 52.7498,46.5774 51.5,46.5C 51.8333,45.8333 52.1667,45.1667 52.5,44.5C 52.5,43.8333 52.8333,43.5 53.5,43.5 Z"/></g>
<g><path style="opacity:0.996" fill="#bdbdbd" d="M 56.5,39.5 C 57.5,39.5 58.5,39.5 59.5,39.5C 64.5758,41.4053 69.9091,42.7386 75.5,43.5C 77.5145,44.9238 79.8478,45.5905 82.5,45.5C 83.5676,46.4345 84.901,46.7678 86.5,46.5C 90.1629,48.4159 94.1629,49.4159 98.5,49.5C 96.1877,52.4789 93.5211,55.1456 90.5,57.5C 78.7171,51.9468 67.3838,45.9468 56.5,39.5 Z"/></g>
<g><path style="opacity:0.997" fill="#bcbcbc" d="M 155.5,41.5 C 154.596,42.209 154.263,43.209 154.5,44.5C 153.596,45.209 153.263,46.209 153.5,47.5C 152.596,48.209 152.263,49.209 152.5,50.5C 151.596,51.209 151.263,52.209 151.5,53.5C 150.596,54.209 150.263,55.209 150.5,56.5C 149.833,57.5 149.167,58.5 148.5,59.5C 149.556,53.6639 151.223,47.9972 153.5,42.5C 153.167,42.1667 152.833,41.8333 152.5,41.5C 140.784,48.1927 128.784,54.026 116.5,59C 117.833,58 119.167,57 120.5,56C 117.622,54.284 115.288,52.1173 113.5,49.5C 118.12,49.2598 122.453,48.2598 126.5,46.5C 129.152,46.5905 131.485,45.9238 133.5,44.5C 135.099,44.7678 136.432,44.4345 137.5,43.5C 139.099,43.7678 140.432,43.4345 141.5,42.5C 145.936,41.9745 150.269,40.9745 154.5,39.5C 155.298,39.9569 155.631,40.6236 155.5,41.5 Z"/></g>
<g><path style="opacity:0.008" fill="#ae6ffc" d="M 40.5,47.5 C 40.631,48.2389 40.4643,48.9056 40,49.5C 39.3083,48.5632 39.475,47.8966 40.5,47.5 Z"/></g>
<g><path style="opacity:0.035" fill="#a6a6a8" d="M 150.5,56.5 C 151.404,55.791 151.737,54.791 151.5,53.5C 152.404,52.791 152.737,51.791 152.5,50.5C 153.404,49.791 153.737,48.791 153.5,47.5C 154.404,46.791 154.737,45.791 154.5,44.5C 155.404,43.791 155.737,42.791 155.5,41.5C 156.363,40.537 157.03,40.537 157.5,41.5C 155.235,47.796 153.068,54.1294 151,60.5C 150.51,59.2068 150.343,57.8734 150.5,56.5 Z"/></g>
<g><path style="opacity:0.004" fill="#ffd1f8" d="M 39.5,51.5 C 40.5735,52.2506 40.7401,53.2506 40,54.5C 39.5172,53.552 39.3505,52.552 39.5,51.5 Z"/></g>
<g><path style="opacity:0.243" fill="#b96f30" d="M 42.5,47.5 C 43.1667,47.5 43.5,47.8333 43.5,48.5C 44.3356,53.5939 43.0022,57.9273 39.5,61.5C 38.5,61.5 37.5,61.5 36.5,61.5C 36.8333,60.8333 37.1667,60.1667 37.5,59.5C 38.7942,58.7101 39.9609,57.7101 41,56.5C 41.2589,53.4133 41.7589,50.4133 42.5,47.5 Z"/></g>
<g><path style="opacity:0.004" fill="#4104f4" d="M 37.5,59.5 C 27.634,59.3527 17.634,59.5194 7.5,60C 12.4968,58.8555 17.6634,58.3555 23,58.5C 28.0119,58.5007 32.8453,58.8341 37.5,59.5 Z"/></g>
<g><path style="opacity:0.01" fill="#b993ff" d="M 44.5,59.5 C 49.0152,58.1876 53.6819,58.1876 58.5,59.5C 54.113,59.5944 49.4463,59.5944 44.5,59.5 Z"/></g>
<g><path style="opacity:0.004" fill="#0000ff" d="M 152.5,59.5 C 158.324,58.8338 164.324,58.5005 170.5,58.5C 177.576,58.3896 184.576,58.8896 191.5,60C 178.531,59.6226 165.531,59.456 152.5,59.5 Z"/></g>
<g><path style="opacity:0.637" fill="#0b09fe" d="M 36.5,61.5 C 37.5,61.5 38.5,61.5 39.5,61.5C 46.5,61.5 53.5,61.5 60.5,61.5C 61.179,64.3879 62.5123,66.8879 64.5,69C 75.4385,72.1476 86.4385,74.9809 97.5,77.5C 97.3893,78.1174 97.056,78.6174 96.5,79C 98.2205,79.7393 99.8872,80.5726 101.5,81.5C 101.376,82.1067 101.043,82.44 100.5,82.5C 99.791,81.596 98.791,81.2627 97.5,81.5C 95.578,83.5814 93.4113,83.5814 91,81.5C 89.9148,82.2931 88.7481,82.9598 87.5,83.5C 86.2241,84.6136 86.2241,85.6136 87.5,86.5C 87.9666,89.2974 89.6333,90.6308 92.5,90.5C 93.7733,91.0768 93.7733,91.7435 92.5,92.5C 90.9291,91.6906 89.2624,91.3573 87.5,91.5C 86.5859,87.7367 84.9192,84.4034 82.5,81.5C 80.2738,84.6189 78.6072,87.9523 77.5,91.5C 77.6107,92.1174 77.944,92.6174 78.5,93C 82.0252,93.1787 85.3586,93.6787 88.5,94.5C 89.1342,95.9468 90.3009,96.6134 92,96.5C 93.6991,96.6134 94.8658,95.9468 95.5,94.5C 99.3293,95.069 102.663,94.4023 105.5,92.5C 106.496,92.4142 107.329,92.7476 108,93.5C 108.708,92.6195 109.542,91.9528 110.5,91.5C 112.484,92.6942 114.484,92.6942 116.5,91.5C 112.164,90.2966 111.831,88.9633 115.5,87.5C 118.704,88.9009 122.037,89.9009 125.5,90.5C 125.47,91.4972 125.97,92.1639 127,92.5C 128.784,91.6909 130.617,91.0243 132.5,90.5C 135.327,91.9322 138.327,92.5988 141.5,92.5C 141.649,88.8767 142.816,88.5434 145,91.5C 146.303,91.0217 147.469,90.355 148.5,89.5C 148.369,90.2389 148.536,90.9056 149,91.5C 149.278,90.5842 149.778,89.9175 150.5,89.5C 152.143,92.4947 154.477,93.1614 157.5,91.5C 158.167,94.1667 158.833,96.8333 159.5,99.5C 108.832,99.6667 58.1656,99.5 7.5,99C 4.30777,96.9718 1.64111,94.4718 -0.5,91.5C -0.5,83.1667 -0.5,74.8333 -0.5,66.5C 0.473169,64.7499 1.8065,63.2499 3.5,62C 14.495,61.5002 25.495,61.3335 36.5,61.5 Z"/></g>
<g><path style="opacity:0.695" fill="#0e0dfe" d="M 148.5,61.5 C 164.17,61.3334 179.837,61.5001 195.5,62C 196.984,62.6622 198.317,63.4955 199.5,64.5C 199.5,74.5 199.5,84.5 199.5,94.5C 198.354,96.475 196.687,97.975 194.5,99C 183.839,99.4998 173.172,99.6665 162.5,99.5C 161.926,95.7334 163.093,92.7334 166,90.5C 167.128,88.6547 167.628,86.6547 167.5,84.5C 165.416,85.2483 163.416,85.2483 161.5,84.5C 160.506,89.456 160.173,94.456 160.5,99.5C 160.167,99.5 159.833,99.5 159.5,99.5C 158.833,96.8333 158.167,94.1667 157.5,91.5C 160.377,88.0399 160.044,84.8732 156.5,82C 154.888,81.2797 153.388,81.4464 152,82.5C 150.798,84.6775 150.298,87.0108 150.5,89.5C 149.778,89.9175 149.278,90.5842 149,91.5C 148.536,90.9056 148.369,90.2389 148.5,89.5C 150.102,83.1943 149.102,82.861 145.5,88.5C 144.719,87.2634 143.719,86.2634 142.5,85.5C 141.289,86.2739 141.289,87.1072 142.5,88C 141.5,88.6667 140.5,88.6667 139.5,88C 140.833,87 140.833,86 139.5,85C 136.975,84.1041 134.808,84.6041 133,86.5C 130.712,82.7652 127.545,81.4319 123.5,82.5C 125.086,84.1727 125.753,86.1727 125.5,88.5C 122.167,87.8333 118.833,87.1667 115.5,86.5C 114.341,84.6231 112.674,84.1231 110.5,85C 108.963,86.1096 108.297,87.6096 108.5,89.5C 109.5,89.8333 110.167,90.5 110.5,91.5C 109.542,91.9528 108.708,92.6195 108,93.5C 107.329,92.7476 106.496,92.4142 105.5,92.5C 103.901,92.7678 102.568,92.4345 101.5,91.5C 102.043,91.44 102.376,91.1067 102.5,90.5C 101.675,89.6143 100.675,89.281 99.5,89.5C 99.762,88.0222 99.4287,86.6888 98.5,85.5C 97.051,87.9119 97.3843,89.9119 99.5,91.5C 98.791,92.404 97.791,92.7373 96.5,92.5C 96.7947,90.2646 96.4614,88.2646 95.5,86.5C 92.8778,83.8518 90.2111,83.8518 87.5,86.5C 86.2241,85.6136 86.2241,84.6136 87.5,83.5C 88.7481,82.9598 89.9148,82.2931 91,81.5C 93.4113,83.5814 95.578,83.5814 97.5,81.5C 98.1403,84.6822 99.1403,85.0155 100.5,82.5C 101.043,82.44 101.376,82.1067 101.5,81.5C 99.8872,80.5726 98.2205,79.7393 96.5,79C 97.056,78.6174 97.3893,78.1174 97.5,77.5C 100.148,78.1621 102.815,78.8288 105.5,79.5C 118.591,76.748 131.591,73.5813 144.5,70C 145.948,67.1241 147.281,64.2908 148.5,61.5 Z"/></g>
<g><path style="opacity:0.999" fill="#f5f5f7" d="M 56.5,39.5 C 67.3838,45.9468 78.7171,51.9468 90.5,57.5C 93.5211,55.1456 96.1877,52.4789 98.5,49.5C 98.5,49.1667 98.5,48.8333 98.5,48.5C 100.027,48.573 101.027,47.9063 101.5,46.5C 102.5,46.1667 103.167,45.5 103.5,44.5C 103.833,44.5 104.167,44.5 104.5,44.5C 105.609,44.5569 106.609,44.8902 107.5,45.5C 107.833,45.5 108.167,45.5 108.5,45.5C 108.973,46.9063 109.973,47.573 111.5,47.5C 111.5,48.1667 111.833,48.5 112.5,48.5C 112.5,49.1667 112.833,49.5 113.5,49.5C 115.288,52.1173 117.622,54.284 120.5,56C 119.167,57 117.833,58 116.5,59C 128.784,54.026 140.784,48.1927 152.5,41.5C 152.833,41.8333 153.167,42.1667 153.5,42.5C 151.223,47.9972 149.556,53.6639 148.5,59.5C 148.5,60.1667 148.5,60.8333 148.5,61.5C 147.281,64.2908 145.948,67.1241 144.5,70C 131.591,73.5813 118.591,76.748 105.5,79.5C 102.815,78.8288 100.148,78.1621 97.5,77.5C 86.4385,74.9809 75.4385,72.1476 64.5,69C 62.5123,66.8879 61.179,64.3879 60.5,61.5C 58.676,56.0189 56.676,50.6855 54.5,45.5C 54.5,44.8333 54.5,44.1667 54.5,43.5C 54.67,42.1779 54.3366,41.0113 53.5,40C 54.448,39.5172 55.448,39.3505 56.5,39.5 Z M 101.5,46.5 C 101.027,47.9063 100.027,48.573 98.5,48.5C 98.9731,47.0937 99.9731,46.427 101.5,46.5 Z M 108.5,45.5 C 109.167,45.5 109.833,45.5 110.5,45.5C 110.833,46.1667 111.167,46.8333 111.5,47.5C 109.973,47.573 108.973,46.9063 108.5,45.5 Z M 129.5,44.5 C 130.833,44.5 132.167,44.5 133.5,44.5C 131.485,45.9238 129.152,46.5905 126.5,46.5C 127.5,45.8333 128.5,45.1667 129.5,44.5 Z M 75.5,43.5 C 76.8333,43.5 78.1667,43.5 79.5,43.5C 80.5,44.1667 81.5,44.8333 82.5,45.5C 79.8478,45.5905 77.5145,44.9238 75.5,43.5 Z M 102.5,41.5 C 103.167,41.5 103.833,41.5 104.5,41.5C 104.5,42.5 104.5,43.5 104.5,44.5C 104.167,44.5 103.833,44.5 103.5,44.5C 103.443,43.391 103.11,42.391 102.5,41.5 Z"/></g>
<g><path style="opacity:0.008" fill="#969696" d="M 112.5,48.5 C 113.946,47.3871 115.613,47.2204 117.5,48C 115.866,48.4935 114.199,48.6602 112.5,48.5 Z"/></g>
<g><path style="opacity:0.012" fill="#818181" d="M 118.5,47.5 C 119.251,46.4265 120.251,46.2599 121.5,47C 120.552,47.4828 119.552,47.6495 118.5,47.5 Z"/></g>
<g><path style="opacity:0.012" fill="#818181" d="M 90.5,47.5 C 91.2506,46.4265 92.2506,46.2599 93.5,47C 92.552,47.4828 91.552,47.6495 90.5,47.5 Z"/></g>
<g><path style="opacity:0.004" fill="#b4b4b4" d="M 129.5,44.5 C 128.5,45.1667 127.5,45.8333 126.5,46.5C 125.127,46.6567 123.793,46.49 122.5,46C 124.74,45.023 127.073,44.523 129.5,44.5 Z"/></g>
<g><path style="opacity:0.024" fill="#a7a7a7" d="M 86.5,46.5 C 86.5,46.1667 86.5,45.8333 86.5,45.5C 90.5,45.8333 90.5,46.1667 86.5,46.5 Z"/></g>
<g><path style="opacity:0.031" fill="#8e8e8e" d="M 79.5,43.5 C 82.1522,43.4095 84.4855,44.0762 86.5,45.5C 85.1667,45.5 83.8333,45.5 82.5,45.5C 81.5,44.8333 80.5,44.1667 79.5,43.5 Z"/></g>
<g><path style="opacity:0.031" fill="#9c9c9c" d="M 72.5,41.5 C 75.1522,41.4095 77.4855,42.0762 79.5,43.5C 78.1667,43.5 76.8333,43.5 75.5,43.5C 74.5,42.8333 73.5,42.1667 72.5,41.5 Z"/></g>
<g><path style="opacity:0.024" fill="#693f0e" d="M 91.5,42.5 C 93.4346,41.291 95.4346,41.4577 97.5,43C 95.5116,43.1805 93.5116,43.0138 91.5,42.5 Z"/></g>
<g><path style="opacity:0.906" fill="#0c85ff" d="M 178.5,68.5 C 181.149,68.8521 183.815,69.1854 186.5,69.5C 185.167,69.8333 183.833,70.1667 182.5,70.5C 180.667,70.4146 179.334,69.7479 178.5,68.5 Z"/></g>
<g><path style="opacity:0.876" fill="#0a82ff" d="M 164.5,71.5 C 168.529,71.1486 172.362,71.8152 176,73.5C 178.077,72.9828 180.077,72.3161 182,71.5C 182.167,71.8333 182.333,72.1667 182.5,72.5C 180.808,73.9686 178.808,74.6353 176.5,74.5C 172.007,74.4678 168.007,73.4678 164.5,71.5 Z"/></g>
<g><path style="opacity:0.841" fill="#0880ff" d="M 4.5,74.5 C 8.81313,74.3777 12.9798,75.0444 17,76.5C 19.5095,75.9075 22.0095,75.7408 24.5,76C 21.8715,77.3307 19.0382,78.1641 16,78.5C 11.7958,77.5836 7.96246,76.2502 4.5,74.5 Z"/></g>
<g><path style="opacity:0.839" fill="#0c7eff" d="M 143.5,75.5 C 147.677,76.0578 151.844,76.7244 156,77.5C 158.54,77.1042 161.04,76.9375 163.5,77C 156.397,80.4778 149.731,79.9778 143.5,75.5 Z"/></g>
<g><path style="opacity:0.831" fill="#b9b4fb" d="M 97.5,81.5 C 98.791,81.2627 99.791,81.596 100.5,82.5C 99.1403,85.0155 98.1403,84.6822 97.5,81.5 Z"/></g>
<g><path style="opacity:0.984" fill="#d7d3f8" d="M 87.5,91.5 C 86.8333,92.8333 86.1667,92.8333 85.5,91.5C 84.6475,89.0737 82.9808,88.2404 80.5,89C 79.7476,89.6708 79.4142,90.5041 79.5,91.5C 78.8333,91.5 78.1667,91.5 77.5,91.5C 78.6072,87.9523 80.2738,84.6189 82.5,81.5C 84.9192,84.4034 86.5859,87.7367 87.5,91.5 Z"/></g>
<g><path style="opacity:1" fill="#dcd8f8" d="M 95.5,86.5 C 95.5,89.1667 95.5,91.8333 95.5,94.5C 94.8658,95.9468 93.6991,96.6134 92,96.5C 90.3009,96.6134 89.1342,95.9468 88.5,94.5C 94.0233,95.3272 95.6899,93.3272 93.5,88.5C 92.6397,86.0299 91.3064,85.8632 89.5,88C 90.7375,88.2321 91.7375,88.7321 92.5,89.5C 92.5,89.8333 92.5,90.1667 92.5,90.5C 89.6333,90.6308 87.9666,89.2974 87.5,86.5C 90.2111,83.8518 92.8778,83.8518 95.5,86.5 Z"/></g>
<g><path style="opacity:0.735" fill="#2d21fe" d="M 93.5,88.5 C 93.5,89.1667 93.1667,89.5 92.5,89.5C 91.7375,88.7321 90.7375,88.2321 89.5,88C 91.3064,85.8632 92.6397,86.0299 93.5,88.5 Z"/></g>
<g><path style="opacity:1" fill="#d8d4f9" d="M 66.5,79.5 C 67.4959,79.4142 68.3292,79.7476 69,80.5C 69.0259,84.1083 69.8593,87.4417 71.5,90.5C 70.132,91.5937 68.9653,91.2603 68,89.5C 64.9208,92.4248 62.4208,92.0915 60.5,88.5C 61.4964,85.6681 63.4964,84.3347 66.5,84.5C 66.5,82.8333 66.5,81.1667 66.5,79.5 Z"/></g>
<g><path style="opacity:0.733" fill="#1b17fe" d="M 63.5,86.5 C 67.9423,86.8835 68.2757,87.8835 64.5,89.5C 62.4807,88.8671 62.1474,87.8671 63.5,86.5 Z"/></g>
<g><path style="opacity:0.976" fill="#e3e0f8" d="M 101.5,91.5 C 100.833,91.5 100.167,91.5 99.5,91.5C 97.3843,89.9119 97.051,87.9119 98.5,85.5C 99.4287,86.6888 99.762,88.0222 99.5,89.5C 100.675,89.281 101.675,89.6143 102.5,90.5C 102.376,91.1067 102.043,91.44 101.5,91.5 Z"/></g>
<g><path style="opacity:0.963" fill="#e3dff8" d="M 108.5,89.5 C 107.448,91.256 105.781,91.9227 103.5,91.5C 103.177,87.774 103.511,84.1073 104.5,80.5C 105.484,83.4281 105.817,86.4281 105.5,89.5C 106.5,89.5 107.5,89.5 108.5,89.5 Z"/></g>
<g><path style="opacity:0.878" fill="#1a89ff" d="M 115.5,87.5 C 115.5,87.1667 115.5,86.8333 115.5,86.5C 118.833,87.1667 122.167,87.8333 125.5,88.5C 125.5,89.1667 125.5,89.8333 125.5,90.5C 122.037,89.9009 118.704,88.9009 115.5,87.5 Z"/></g>
<g><path style="opacity:0.843" fill="#0a82ff" d="M 177.5,85.5 C 181.491,86.4933 185.491,87.4933 189.5,88.5C 192.503,87.862 195.503,87.6953 198.5,88C 195.293,89.2755 191.959,90.1089 188.5,90.5C 184.595,89.0499 180.595,87.8832 176.5,87C 177.056,86.6174 177.389,86.1174 177.5,85.5 Z"/></g>
<g><path style="opacity:0.855" fill="#3d84fe" d="M 25.5,89.5 C 24.8902,90.391 24.5569,91.391 24.5,92.5C 16.7214,90.896 17.0547,89.896 25.5,89.5 Z"/></g>
<g><path style="opacity:0.988" fill="#d5d2f9" d="M 115.5,86.5 C 115.5,86.8333 115.5,87.1667 115.5,87.5C 111.831,88.9633 112.164,90.2966 116.5,91.5C 114.484,92.6942 112.484,92.6942 110.5,91.5C 110.167,90.5 109.5,89.8333 108.5,89.5C 108.297,87.6096 108.963,86.1096 110.5,85C 112.674,84.1231 114.341,84.6231 115.5,86.5 Z"/></g>
<g><path style="opacity:0.98" fill="#cac8f9" d="M 148.5,89.5 C 147.469,90.355 146.303,91.0217 145,91.5C 142.816,88.5434 141.649,88.8767 141.5,92.5C 138.327,92.5988 135.327,91.9322 132.5,90.5C 130.617,91.0243 128.784,91.6909 127,92.5C 125.97,92.1639 125.47,91.4972 125.5,90.5C 125.5,89.8333 125.5,89.1667 125.5,88.5C 125.753,86.1727 125.086,84.1727 123.5,82.5C 127.545,81.4319 130.712,82.7652 133,86.5C 134.808,84.6041 136.975,84.1041 139.5,85C 140.833,86 140.833,87 139.5,88C 140.5,88.6667 141.5,88.6667 142.5,88C 141.289,87.1072 141.289,86.2739 142.5,85.5C 143.719,86.2634 144.719,87.2634 145.5,88.5C 149.102,82.861 150.102,83.1943 148.5,89.5 Z"/></g>
<g><path style="opacity:0.749" fill="#3832fe" d="M 127.5,84.5 C 130.709,85.2967 131.209,86.9634 129,89.5C 127.731,88.0953 127.231,86.4286 127.5,84.5 Z"/></g>
<g><path style="opacity:0.988" fill="#d5d1f9" d="M 157.5,91.5 C 154.477,93.1614 152.143,92.4947 150.5,89.5C 150.298,87.0108 150.798,84.6775 152,82.5C 153.388,81.4464 154.888,81.2797 156.5,82C 160.044,84.8732 160.377,88.0399 157.5,91.5 Z"/></g>
<g><path style="opacity:0.735" fill="#261dfe" d="M 154.5,83.5 C 156.978,85.4827 157.145,87.816 155,90.5C 153.193,88.294 153.026,85.9606 154.5,83.5 Z"/></g>
<g><path style="opacity:0.969" fill="#cec8f9" d="M 41.5,91.5 C 40.5,91.5 39.5,91.5 38.5,91.5C 36.4599,91.4359 34.1266,91.2692 31.5,91C 30.4971,89.4542 29.4971,89.2875 28.5,90.5C 27.5,90.8333 26.8333,91.5 26.5,92.5C 25.8333,92.5 25.1667,92.5 24.5,92.5C 24.5569,91.391 24.8902,90.391 25.5,89.5C 26.2389,89.631 26.9056,89.4643 27.5,89C 25.4148,87.9586 23.7481,86.4586 22.5,84.5C 23.825,81.6708 25.825,81.0042 28.5,82.5C 27.5,83.1667 26.5,83.8333 25.5,84.5C 26.7598,85.3816 27.9264,86.3816 29,87.5C 31.7431,84.1151 34.5764,83.7818 37.5,86.5C 38.8381,84.8872 40.5048,84.3872 42.5,85C 43.8502,86.7183 45.0168,88.5516 46,90.5C 46.1165,87.1263 46.9498,83.7929 48.5,80.5C 49.1667,83.5 49.8333,86.5 50.5,89.5C 51.8276,84.8106 54.661,83.4773 59,85.5C 59.3087,87.3914 58.4753,88.7248 56.5,89.5C 57.8333,90.1667 59.1667,90.8333 60.5,91.5C 57.8122,92.7974 55.3122,92.4641 53,90.5C 50.5393,91.2181 48.0393,91.8847 45.5,92.5C 44.2724,90.8241 42.9391,90.4908 41.5,91.5 Z"/></g>
<g><path style="opacity:0.704" fill="#3028fe" d="M 40.5,86.5 C 41.7759,87.3864 41.7759,88.3864 40.5,89.5C 39.4376,88.5754 39.4376,87.5754 40.5,86.5 Z"/></g>
<g><path style="opacity:0.733" fill="#0d0aff" d="M 37.5,86.5 C 37.5,87.5 37.5,88.5 37.5,89.5C 35.712,89.7852 34.0453,89.4519 32.5,88.5C 33.6685,86.7826 35.3352,86.1159 37.5,86.5 Z"/></g>
<g><path style="opacity:0.745" fill="#3325fe" d="M 85.5,91.5 C 83.5,91.5 81.5,91.5 79.5,91.5C 79.4142,90.5041 79.7476,89.6708 80.5,89C 82.9808,88.2404 84.6475,89.0737 85.5,91.5 Z"/></g>
<g><path style="opacity:0.918" fill="#e1ddf8" d="M 162.5,99.5 C 161.833,99.5 161.167,99.5 160.5,99.5C 160.173,94.456 160.506,89.456 161.5,84.5C 163.416,85.2483 165.416,85.2483 167.5,84.5C 167.628,86.6547 167.128,88.6547 166,90.5C 163.093,92.7334 161.926,95.7334 162.5,99.5 Z"/></g>
<g><path style="opacity:0.729" fill="#362efe" d="M 164.5,86.5 C 165.713,87.4971 165.546,88.4971 164,89.5C 163.53,88.4232 163.697,87.4232 164.5,86.5 Z"/></g>
<g><path style="opacity:0.929" fill="#d0c9f9" d="M 169.5,84.5 C 171.167,84.5 172.833,84.5 174.5,84.5C 173.591,86.7614 173.258,88.928 173.5,91C 171.741,91.7975 170.074,91.6309 168.5,90.5C 173.682,89.224 173.682,88.5573 168.5,88.5C 168.433,87.0413 168.766,85.7079 169.5,84.5 Z"/></g>
<g><path style="opacity:0.78" fill="#2738fe" d="M 38.5,91.5 C 34.8471,94.4207 31.5138,94.0874 28.5,90.5C 29.4971,89.2875 30.4971,89.4542 31.5,91C 34.1266,91.2692 36.4599,91.4359 38.5,91.5 Z"/></g>
<g><path style="opacity:0.813" fill="#3f7dfe" d="M 93.5,88.5 C 95.6899,93.3272 94.0233,95.3272 88.5,94.5C 85.3586,93.6787 82.0252,93.1787 78.5,93C 77.944,92.6174 77.6107,92.1174 77.5,91.5C 78.1667,91.5 78.8333,91.5 79.5,91.5C 81.5,91.5 83.5,91.5 85.5,91.5C 86.1667,92.8333 86.8333,92.8333 87.5,91.5C 89.2624,91.3573 90.9291,91.6906 92.5,92.5C 93.7733,91.7435 93.7733,91.0768 92.5,90.5C 92.5,90.1667 92.5,89.8333 92.5,89.5C 93.1667,89.5 93.5,89.1667 93.5,88.5 Z"/></g>
<g><path style="opacity:0.824" fill="#2e85fe" d="M 28.5,90.5 C 31.5138,94.0874 34.8471,94.4207 38.5,91.5C 39.5,91.5 40.5,91.5 41.5,91.5C 36.7181,94.994 31.7181,95.3273 26.5,92.5C 26.8333,91.5 27.5,90.8333 28.5,90.5 Z"/></g>
<g><path style="opacity:0.796" fill="#407dfe" d="M 95.5,86.5 C 96.4614,88.2646 96.7947,90.2646 96.5,92.5C 97.791,92.7373 98.791,92.404 99.5,91.5C 100.167,91.5 100.833,91.5 101.5,91.5C 102.568,92.4345 103.901,92.7678 105.5,92.5C 102.663,94.4023 99.3293,95.069 95.5,94.5C 95.5,91.8333 95.5,89.1667 95.5,86.5 Z"/></g>
<g><path style="opacity:0.008" fill="#7448fd" d="M 9.5,101.5 C 70.332,100.335 131.332,100.168 192.5,101C 131.501,101.5 70.5009,101.667 9.5,101.5 Z"/></g>
</svg>
